<svg xmlns="http://www.w3.org/2000/svg" viewBox="0 0 512 512">
  <defs>
    <linearGradient id="bg" x1="0%" y1="0%" x2="100%" y2="100%">
      <stop offset="0%" style="stop-color:#f59e0b"/>
      <stop offset="100%" style="stop-color:#ea580c"/>
    </linearGradient>
  </defs>
  <rect width="512" height="512" rx="96" fill="url(#bg)"/>
  <!-- Hotel building -->
  <rect x="156" y="160" width="200" height="232" rx="12" fill="white" opacity="0.95"/>
  <!-- Windows row 1 -->
  <rect x="186" y="190" width="36" height="36" rx="6" fill="#fbbf24"/>
  <rect x="238" y="190" width="36" height="36" rx="6" fill="#fbbf24"/>
  <rect x="290" y="190" width="36" height="36" rx="6" fill="#fbbf24"/>
  <!-- Windows row 2 -->
  <rect x="186" y="246" width="36" height="36" rx="6" fill="#fbbf24"/>
  <rect x="238" y="246" width="36" height="36" rx="6" fill="#fbbf24"/>
  <rect x="290" y="246" width="36" height="36" rx="6" fill="#fbbf24"/>
  <!-- Windows row 3 -->
  <rect x="186" y="302" width="36" height="36" rx="6" fill="#fbbf24"/>
  <rect x="290" y="302" width="36" height="36" rx="6" fill="#fbbf24"/>
  <!-- Door -->
  <rect x="232" y="310" width="48" height="82" rx="8" fill="#ea580c"/>
  <circle cx="270" cy="355" r="4" fill="white"/>
  <!-- Roof -->
  <rect x="140" y="148" width="232" height="18" rx="9" fill="white" opacity="0.95"/>
</svg>
